# xmcd CD database file
#
# Track frame offsets:
#	150
#	17370
#	41935
#	62467
#	81474
#	92853
#	106250
#	115618
#	140632
#	154029
#	167427
#	176696
#
# Disc length: 2652 seconds
#
# Revision: 0
# Processed by: cddbd v1.5.2PL0 Copyright (c) Steve Scherf et al.
# Submitted via: CDex 1.51
#
DISCID=930a5a0c
DTITLE=Nine Below Zero - Both sides of
DYEAR=2008
DGENRE=Blues
TTITLE0=Eleven plus eleven
TTITLE1=Down in the dirt again
TTITLE2=The rocker
TTITLE3=One way street
TTITLE4=Three times enough
TTITLE5=Don't point your finger
TTITLE6=Mama talk to your daughter
TTITLE7=Ridin' on the L and N
TTITLE8=I can't help myself
TTITLE9=Hoochie coochie coo
TTITLE10=Pack fair and square
TTITLE11=Homework-Hit the road Jack
EXTD=YEAR: 2008
EXTT0=
EXTT1=
EXTT2=
EXTT3=
EXTT4=
EXTT5=
EXTT6=
EXTT7=
EXTT8=
EXTT9=
EXTT10=
EXTT11=
PLAYORDER=
